<svg xmlns="http://www.w3.org/2000/svg" width="24" height="24" fill="none" viewBox="0 0 24 24"><path fill="currentColor" d="M5.769 3.508C8.29 5.408 11.004 9.26 12 11.327v5.46c0-.117-.045.014-.14.297-.52 1.532-2.55 7.51-7.193 2.73-2.445-2.515-1.313-5.032 3.136-5.791-2.545.434-5.407-.284-6.192-3.1C1.385 10.114 1 5.126 1 4.453c0-3.375 2.949-2.314 4.769-.944Zm12.462 0C15.71 5.408 12.996 9.26 12 11.327v5.46c0-.117.045.014.14.297.52 1.532 2.55 7.51 7.193 2.73 2.445-2.515 1.313-5.032-3.136-5.791 2.545.434 5.407-.284 6.192-3.1.226-.81.611-5.798.611-6.471 0-3.375-2.949-2.314-4.769-.944Z"/></svg>