<svg xmlns="http://www.w3.org/2000/svg" width="24" height="24" fill="none" viewBox="0 0 24 24"><path fill="currentColor" fill-rule="evenodd" d="M12 0C5.371 0 0 5.375 0 11.998c0 6.295 4.857 11.463 11.027 11.959V24H12c6.629 0 12-5.375 12-11.998C24 5.38 18.63 0 12 0Zm2.652 21.7c-.753.206-1.541.326-2.353.35H12c-1.354 0-2.647-.269-3.826-.755 1.142-4.116 4.238-7.063 7.782-8.38.611 2.964.168 6.14-1.304 8.785Zm.764-10.66c-4.044 1.457-7.577 4.738-8.996 9.318a10.044 10.044 0 0 1-4.473-8.36c0-1.236.223-2.42.631-3.513a14.27 14.27 0 0 0 3.857 1.273c1.705.313 3.452.303 5.151-.004a14.016 14.016 0 0 0 2.818-.824c.403.67.743 1.377 1.012 2.11Zm2.416 1.339a14.952 14.952 0 0 1-.525 8.161 10.047 10.047 0 0 0 4.742-8.226 11.222 11.222 0 0 0-4.217.065Zm4.081-2.058a13.296 13.296 0 0 0-4.62.183 14.33 14.33 0 0 0-1.136-2.434 14.546 14.546 0 0 0 3.393-2.706 10.023 10.023 0 0 1 2.363 4.957ZM6.78 7.843a12.323 12.323 0 0 1-3.346-1.107A10.104 10.104 0 0 1 7.13 3.203l.012.003c.165.052.323.102.475.157l.164.062c.246.093.467.177.65.262l.053.026.012.006a57.563 57.563 0 0 1 .65.308l.002.001c.05.028.093.05.133.074a1.912 1.912 0 0 0 .157.093l.056.03.007.005.016.009.002.001.08.046a24.422 24.422 0 0 1 .417.244l.065.041.003.002.042.032.048.028c.072.043.143.093.232.154.04.028.085.06.135.093l.034.023.029.016.004.003.059.041.178.132.079.06.117.087c.046.035.103.077.154.113a13.06 13.06 0 0 1 2.038 1.942c-.647.237-1.314.42-1.992.542-1.48.266-2.991.274-4.457.005h-.002l-.003-.001ZM12 1.946c2.307 0 4.433.779 6.13 2.087a12.6 12.6 0 0 1-3.072 2.423 15.035 15.035 0 0 0-2.703-2.665l-.024-.018-.025-.017-.007-.005-.022-.016a6.42 6.42 0 0 1-.174-.13l-.088-.066a11.665 11.665 0 0 0-.214-.158 3.128 3.128 0 0 0-.19-.127l-.045-.032c-.093-.064-.232-.16-.358-.238a6.09 6.09 0 0 0-.383-.238c-.101-.06-.21-.122-.278-.16l-.052-.03-.027-.016-.028-.015-.054-.03a2.461 2.461 0 0 1-.044-.025l-.007-.005-.026-.016a5.003 5.003 0 0 0-.244-.137l-.02-.01-.022-.013L10 2.28a61.27 61.27 0 0 1-.193-.093c.706-.157 1.44-.24 2.193-.24Z" clip-rule="evenodd"/></svg>