<svg xmlns="http://www.w3.org/2000/svg" width="24" height="24" fill="none" viewBox="0 0 24 24"><path fill="currentColor" d="M22.915 5.947c-.323-2.378-2.419-4.253-4.903-4.616-.419-.061-2.007-.285-5.685-.285H12.3c-3.68 0-4.47.224-4.888.285-2.415.353-4.62 2.037-5.156 4.444C2 6.96 1.972 8.274 2.02 9.479c.068 1.729.082 3.454.24 5.175.11 1.144.301 2.278.573 3.395.509 2.062 2.568 3.779 4.585 4.479 2.16.73 4.482.851 6.707.35.245-.056.487-.122.727-.196.54-.17 1.174-.36 1.64-.694a.052.052 0 0 0 .021-.04v-1.669a.049.049 0 0 0-.02-.038.05.05 0 0 0-.041-.009 18.785 18.785 0 0 1-4.353.503c-2.523 0-3.201-1.184-3.395-1.677a5.149 5.149 0 0 1-.295-1.322.048.048 0 0 1 .017-.04.05.05 0 0 1 .043-.01c1.403.335 2.84.504 4.282.504.347 0 .693 0 1.04-.01 1.45-.04 2.98-.113 4.406-.389.036-.007.071-.013.102-.022 2.251-.427 4.394-1.77 4.611-5.168a96.57 96.57 0 0 0 .029-1.54c0-.472.153-3.347-.023-5.114Zm-3.464 8.48h-2.367V8.693c0-1.208-.51-1.823-1.544-1.823-1.137 0-1.707.728-1.707 2.167v3.138h-2.352V9.037c0-1.44-.571-2.167-1.708-2.167-1.029 0-1.542.615-1.543 1.823v5.734H5.864V8.518c0-1.207.312-2.166.935-2.877.643-.71 1.486-1.073 2.533-1.073 1.212 0 2.127.46 2.738 1.381l.589.978.59-.978c.61-.92 1.525-1.381 2.735-1.381 1.046 0 1.889.364 2.534 1.073.623.71.935 1.67.935 2.877l-.002 5.909Z"/></svg>