<svg xmlns="http://www.w3.org/2000/svg" width="24" height="24" fill="none" viewBox="0 0 24 24"><path fill="currentColor" d="M8.611 11.61c-.719 0-1.338.716-1.38 1.647-.044.932.586 1.31 1.307 1.31.72 0 1.257-.338 1.3-1.27.043-.93-.507-1.686-1.227-1.686ZM16.78 13.257c-.041-.931-.66-1.646-1.38-1.646-.72 0-1.27.755-1.227 1.687.043.932.581 1.27 1.3 1.27.72 0 1.35-.38 1.308-1.31ZM14.712 15.692a.203.203 0 0 0-.168-.28 25.404 25.404 0 0 0-2.539-.123c-.893 0-1.748.044-2.538.124a.203.203 0 0 0-.169.279 2.934 2.934 0 0 0 5.414 0Z"/><path fill="currentColor" fill-rule="evenodd" d="M1 12C1 5.925 5.925 1 12 1s11 4.925 11 11-4.925 11-11 11H2.593a.66.66 0 0 1-.466-1.127l2.095-2.095A10.966 10.966 0 0 1 1 12Zm15.022-4.402a1.834 1.834 0 0 1-1.784-1.41 2.17 2.17 0 0 0-1.863 2.147v.007c1.628.06 3.117.52 4.296 1.25a2.568 2.568 0 1 1 2.666 4.357c-.081 2.984-3.335 5.385-7.332 5.385s-7.246-2.399-7.331-5.38a2.568 2.568 0 0 1 1.09-4.896c.59 0 1.136.2 1.57.537 1.168-.725 2.64-1.184 4.253-1.252v-.01a2.96 2.96 0 0 1 2.64-2.939 1.834 1.834 0 1 1 1.795 2.204Z" clip-rule="evenodd"/></svg>