<svg xmlns="http://www.w3.org/2000/svg" width="24" height="24" fill="none" viewBox="0 0 24 24"><path fill="currentColor" d="m9.36 1.321.246 1a9.988 9.988 0 0 0-2.763 1.144l-.528-.884A10.863 10.863 0 0 1 9.36 1.32Zm5.28 0-.246 1c.973.24 1.904.626 2.763 1.144l.534-.884a10.94 10.94 0 0 0-3.05-1.26ZM2.58 6.312A10.923 10.923 0 0 0 1.322 9.36l1 .247a9.988 9.988 0 0 1 1.144-2.763l-.884-.53ZM2.03 12c0-.5.038-1 .113-1.494l-1.019-.156a11 11 0 0 0 0 3.297l1.019-.153A9.985 9.985 0 0 1 2.031 12Zm15.655 9.416-.528-.881a9.93 9.93 0 0 1-2.76 1.144l.247 1a10.945 10.945 0 0 0 3.04-1.263ZM21.97 12c0 .5-.038 1-.113 1.494l1.019.153a11.003 11.003 0 0 0 0-3.297l-1.019.156c.075.495.113.994.113 1.494Zm.709 2.638-1-.247a9.967 9.967 0 0 1-1.144 2.766l.884.53c.573-.946.997-1.975 1.26-3.05Zm-9.185 7.219c-.99.15-1.998.15-2.988 0l-.153 1.019c1.092.165 2.202.165 3.294 0l-.153-1.019Zm6.532-3.944a9.941 9.941 0 0 1-2.113 2.11l.613.83a11.1 11.1 0 0 0 2.33-2.321l-.83-.62ZM17.913 3.974a9.958 9.958 0 0 1 2.113 2.113l.83-.619a11.081 11.081 0 0 0-2.324-2.325l-.62.831ZM3.974 6.087a9.957 9.957 0 0 1 2.113-2.113l-.619-.83a11.082 11.082 0 0 0-2.325 2.324l.831.62Zm17.445.225-.884.531a9.933 9.933 0 0 1 1.144 2.76l1-.247a10.904 10.904 0 0 0-1.26-3.044ZM10.506 2.143c.99-.15 1.998-.15 2.988 0l.153-1.019a10.979 10.979 0 0 0-3.294 0l.153 1.019ZM4.503 21.129l-2.129.494.497-2.129-1.003-.234-.497 2.128a1.031 1.031 0 0 0 1.238 1.24l2.128-.49-.234-1.01ZM2.08 18.34l1.007.231.344-1.475a9.883 9.883 0 0 1-1.11-2.706l-1 .247c.225.911.565 1.79 1.013 2.615l-.254 1.088Zm4.813 2.232-1.475.343.235 1.007 1.084-.253c.825.448 1.704.788 2.616 1.012l.247-1a9.9 9.9 0 0 1-2.697-1.116l-.01.007ZM12 3.062a8.94 8.94 0 0 0-8.935 8.941 8.96 8.96 0 0 0 1.372 4.75l-.86 3.67 3.666-.86c4.179 2.628 9.698 1.375 12.326-2.8 2.629-4.176 1.379-9.695-2.797-12.326A8.96 8.96 0 0 0 12 3.062Z"/></svg>